<svg xmlns="http://www.w3.org/2000/svg" viewBox="0 0 526 304"><defs><style>.a{fill:#0bb5d4;}.b{font-size:49px;fill:#f0e934;font-family:MicrosoftSansSerif, Microsoft Sans Serif;}.c{font-size:84px;fill:#263a95;font-family:Courier;}.d{fill:#283891;}.e{fill:#2b338c;}</style></defs><title>logo</title><rect class="a" x="12.5" y="12.9" width="501" height="280.2" rx="46.47"/><text class="b" transform="translate(41 67.08)">Introduction to </text><text class="c" transform="translate(26 145.68)"><tspan xml:space="preserve">Machine  </tspan></text><text class="c" transform="translate(74.37 214.76)">Learnin</text><path class="d" d="M487.91,186.15c-.47-1-.93-2-1.53-3.06a19.4,19.4,0,0,0-2-2.8l3.52-8.75a1.7,1.7,0,0,0-.76-2.11l-12.14-7a1.84,1.84,0,0,0-2.23.36l-5.71,7.35a26.92,26.92,0,0,0-6.83,0l-5.8-7.43a1.82,1.82,0,0,0-2.31-.4l-12.16,7a1.67,1.67,0,0,0-.73,2.16l3.54,8.73a30.75,30.75,0,0,0-3.42,5.91l-9.31,1.32a1.67,1.67,0,0,0-1.43,1.75v14a1.67,1.67,0,0,0,1.45,1.71l9.34,1.33a19.88,19.88,0,0,0,1.44,3.1,19.21,19.21,0,0,0,2,2.81l-3.52,8.74a1.72,1.72,0,0,0,.75,2.12l12.15,7a1.84,1.84,0,0,0,2.23-.36l5.8-7.41a26.47,26.47,0,0,0,6.83,0l5.79,7.42a1.64,1.64,0,0,0,2.23.45l12.16-7A1.66,1.66,0,0,0,488,221l-3.54-8.73a31.6,31.6,0,0,0,3.42-5.91l9.31-1.33a1.66,1.66,0,0,0,1.43-1.74v-14a1.68,1.68,0,0,0-1.45-1.71Zm-18,20.94A12.54,12.54,0,1,1,474.48,190,12.54,12.54,0,0,1,469.89,207.09Z"/><path class="e" d="M480.46,245.68c-.11-.6-.21-1.19-.38-1.83a10.58,10.58,0,0,0-.64-1.77l3.1-4.13a.93.93,0,0,0-.1-1.23L477,231.29a1,1,0,0,0-1.23-.13l-4.07,3.09a14.68,14.68,0,0,0-3.62-1l-2-4.76a1,1,0,0,0-1.17-.54l-7.44,2a.9.9,0,0,0-.69,1l.64,5.13a17.54,17.54,0,0,0-2.66,2.65l-5.12-.62a.9.9,0,0,0-1,.72l-2,7.43a.92.92,0,0,0,.53,1.11l4.76,2a11.36,11.36,0,0,0,.32,1.85,10.35,10.35,0,0,0,.65,1.76l-3.11,4.14a.94.94,0,0,0,.1,1.23l5.44,5.43a1,1,0,0,0,1.23.13l4.13-3.1a14,14,0,0,0,3.62,1l2,4.76a.9.9,0,0,0,1.12.56l7.44-2a.89.89,0,0,0,.69-1l-.63-5.12a17.47,17.47,0,0,0,2.65-2.65l5.12.62a.9.9,0,0,0,1-.72l2-7.43a.91.91,0,0,0-.53-1.11Zm-12.52,8.54a6.87,6.87,0,1,1,4.86-8.42A6.89,6.89,0,0,1,467.94,254.22Z"/><path class="e" d="M440.65,254.21c-.43-.11-.86-.23-1.34-.31a8.31,8.31,0,0,0-1.38-.12l-1.78-3.34a.69.69,0,0,0-.85-.31l-5.32,2a.74.74,0,0,0-.47.78l.78,3.66a10.89,10.89,0,0,0-1.78,2.11l-3.79-.12a.74.74,0,0,0-.73.61l-1,5.57a.67.67,0,0,0,.48.78l3.61,1.16a12.8,12.8,0,0,0,.93,2.58l-2,3.22a.67.67,0,0,0,.17.89l4.32,3.61a.66.66,0,0,0,.9,0l2.84-2.54a8,8,0,0,0,1.34.35,7.84,7.84,0,0,0,1.37.12l1.78,3.34a.69.69,0,0,0,.85.31l5.32-2a.73.73,0,0,0,.47-.78l-.77-3.7a10.89,10.89,0,0,0,1.78-2.11l3.8.12a.69.69,0,0,0,.72-.57l1-5.57a.65.65,0,0,0-.47-.78L447.78,262a12.22,12.22,0,0,0-.93-2.58l2-3.22a.67.67,0,0,0-.17-.89l-4.31-3.61a.67.67,0,0,0-.91,0Zm1.76,11a5.1,5.1,0,0,1-5.88,4.11,5,5,0,0,1-4.08-5.83,5.09,5.09,0,0,1,5.87-4.11A5,5,0,0,1,442.41,265.18Z"/><path class="e" d="M414,246.14c-.37,0-.73,0-1.12,0a6.31,6.31,0,0,0-1.1.2l-2.1-2.25a.56.56,0,0,0-.73-.06l-3.77,2.65a.59.59,0,0,0-.2.71l1.38,2.71a8.54,8.54,0,0,0-.95,2l-3,.71a.59.59,0,0,0-.44.63l.38,4.58a.53.53,0,0,0,.54.51l3.07.15a10.33,10.33,0,0,0,1.28,1.83l-.91,2.95a.55.55,0,0,0,.32.67l4.15,1.92a.56.56,0,0,0,.71-.19l1.69-2.6a6,6,0,0,0,1.12,0,6.17,6.17,0,0,0,1.11-.2l2.09,2.25a.56.56,0,0,0,.73.06l3.77-2.65a.59.59,0,0,0,.2-.71l-1.38-2.74a8.43,8.43,0,0,0,.95-2l3-.7a.54.54,0,0,0,.44-.6l-.38-4.58a.53.53,0,0,0-.54-.51l-3.07-.15a10.33,10.33,0,0,0-1.28-1.83l.91-3a.55.55,0,0,0-.32-.67l-4.15-1.92a.56.56,0,0,0-.71.19Zm3.68,8.24a4.15,4.15,0,0,1-3.74,4.47,4.07,4.07,0,0,1-4.43-3.72,4.15,4.15,0,0,1,3.74-4.47A4.07,4.07,0,0,1,417.7,254.38Z"/></svg>