<?xml version="1.0" encoding="utf-8"?>
<!-- Generator: Adobe Illustrator 24.0.0, SVG Export Plug-In . SVG Version: 6.00 Build 0)  -->
<svg version="1.1" id="Layer_1" xmlns="http://www.w3.org/2000/svg" xmlns:xlink="http://www.w3.org/1999/xlink" x="0px" y="0px"
	 viewBox="0 0 526 304" style="enable-background:new 0 0 526 304;" xml:space="preserve">
<style type="text/css">
	.st0{fill:#0BB5D4;}
	.st1{fill:#F0E934;}
	.st2{font-family:'MicrosoftSansSerif';}
	.st3{font-size:49px;}
	.st4{fill:#263A95;}
	.st5{font-family:'Courier';}
	.st6{font-size:84px;}
	.st7{fill:#283891;}
	.st8{fill:#2B338C;}
</style>
<title>logo</title>
<path class="st0" d="M52.5,7.6H474c26.5,0,48,21.5,48,48V249c0,26.5-21.5,48-48,48H52.5c-26.5,0-48-21.5-48-48V55.6
	C4.5,29.1,26,7.6,52.5,7.6z"/>
<text transform="matrix(1 0 0 1 41 67.08)" class="st1 st2 st3">Introduction to</text>
<text transform="matrix(1 0 0 1 26 145.68)" class="st4 st5 st6">Machine  </text>
<text transform="matrix(1 0 0 1 74.37 214.76)" class="st4 st5 st6">Learnin</text>
<path class="st7" d="M487.9,186.1c-0.5-1-0.9-2-1.5-3.1c-0.6-1-1.3-1.9-2-2.8l3.5-8.8c0.3-0.8,0-1.7-0.8-2.1l-12.1-7
	c-0.7-0.4-1.7-0.3-2.2,0.4l-5.7,7.4c-2.3-0.3-4.6-0.3-6.8,0l-5.8-7.4c-0.6-0.7-1.5-0.8-2.3-0.4l-12.2,7c-0.8,0.4-1.1,1.4-0.7,2.2
	l3.5,8.7c-1.4,1.8-2.5,3.8-3.4,5.9l-9.3,1.3c-0.9,0.1-1.5,0.9-1.4,1.8v14c0,0.9,0.6,1.6,1.5,1.7l9.3,1.3c0.4,1.1,0.9,2.1,1.4,3.1
	c0.6,1,1.3,1.9,2,2.8l-3.5,8.7c-0.3,0.8,0,1.7,0.8,2.1l12.1,7c0.7,0.4,1.7,0.3,2.2-0.4l5.8-7.4c2.3,0.3,4.6,0.3,6.8,0l5.8,7.4
	c0.5,0.7,1.5,0.9,2.2,0.4l12.2-7c0.7-0.4,1.1-1.3,0.7-2.1l-3.5-8.7c1.4-1.8,2.5-3.8,3.4-5.9l9.3-1.3c0.9-0.1,1.5-0.9,1.4-1.7v-14
	c0-0.9-0.6-1.6-1.5-1.7L487.9,186.1z M469.9,207.1c-6,3.5-13.7,1.4-17.1-4.5c-3.5-6-1.4-13.7,4.5-17.1s13.7-1.4,17.1,4.5
	c0,0,0,0,0,0.1C477.9,196,475.9,203.6,469.9,207.1L469.9,207.1z"/>
<path class="st8" d="M480.5,245.7c-0.1-0.6-0.2-1.2-0.4-1.8c-0.2-0.6-0.4-1.2-0.6-1.8l3.1-4.1c0.3-0.4,0.2-0.9-0.1-1.2l-5.4-5.4
	c-0.3-0.3-0.8-0.4-1.2-0.1l-4.1,3.1c-1.2-0.5-2.4-0.8-3.6-1l-2-4.8c-0.2-0.4-0.7-0.7-1.2-0.5l-7.4,2c-0.5,0.1-0.8,0.5-0.7,1l0.6,5.1
	c-1,0.8-1.9,1.7-2.7,2.6l-5.1-0.6c-0.5-0.1-0.9,0.3-1,0.7l-2,7.4c-0.1,0.5,0.1,0.9,0.5,1.1l4.8,2c0.1,0.6,0.2,1.2,0.3,1.9
	c0.2,0.6,0.4,1.2,0.6,1.8l-3.1,4.1c-0.3,0.4-0.2,0.9,0.1,1.2l5.4,5.4c0.3,0.3,0.8,0.4,1.2,0.1l4.1-3.1c1.2,0.5,2.4,0.8,3.6,1l2,4.8
	c0.2,0.5,0.7,0.7,1.1,0.6l7.4-2c0.5-0.1,0.8-0.5,0.7-1l-0.6-5.1c1-0.8,1.9-1.7,2.6-2.6l5.1,0.6c0.5,0.1,0.9-0.3,1-0.7l2-7.4
	c0.1-0.5-0.1-0.9-0.5-1.1L480.5,245.7z M467.9,254.2c-3.7,1-7.4-1.2-8.4-4.9c-1-3.7,1.2-7.4,4.9-8.4c3.7-1,7.4,1.2,8.4,4.9
	C473.8,249.5,471.6,253.2,467.9,254.2L467.9,254.2z"/>
<path class="st8" d="M440.6,254.2c-0.4-0.1-0.9-0.2-1.3-0.3c-0.5-0.1-0.9-0.1-1.4-0.1l-1.8-3.3c-0.2-0.3-0.5-0.4-0.9-0.3l-5.3,2
	c-0.3,0.1-0.5,0.4-0.5,0.8l0.8,3.7c-0.7,0.6-1.3,1.3-1.8,2.1l-3.8-0.1c-0.4,0-0.7,0.3-0.7,0.6l-1,5.6c-0.1,0.3,0.1,0.7,0.5,0.8
	l3.6,1.2c0.2,0.9,0.5,1.8,0.9,2.6l-2,3.2c-0.2,0.3-0.1,0.7,0.2,0.9l4.3,3.6c0.3,0.2,0.6,0.2,0.9,0l2.8-2.5c0.4,0.2,0.9,0.3,1.3,0.4
	c0.5,0.1,0.9,0.1,1.4,0.1l1.8,3.3c0.2,0.3,0.5,0.4,0.9,0.3l5.3-2c0.3-0.1,0.5-0.4,0.5-0.8l-0.8-3.7c0.7-0.6,1.3-1.3,1.8-2.1l3.8,0.1
	c0.3,0,0.7-0.2,0.7-0.6l1-5.6c0.1-0.3-0.1-0.7-0.5-0.8l-3.6-1.2c-0.2-0.9-0.5-1.8-0.9-2.6l2-3.2c0.2-0.3,0.1-0.7-0.2-0.9l-4.3-3.6
	c-0.3-0.2-0.7-0.2-0.9,0L440.6,254.2z M442.4,265.2c-0.5,2.7-3.1,4.6-5.9,4.1c-2.7-0.5-4.6-3-4.1-5.8c0,0,0,0,0-0.1
	c0.5-2.7,3.1-4.6,5.9-4.1C441,259.8,442.9,262.4,442.4,265.2C442.4,265.2,442.4,265.2,442.4,265.2L442.4,265.2z"/>
<path class="st8" d="M414,246.1c-0.4,0-0.7,0-1.1,0c-0.4,0-0.7,0.1-1.1,0.2l-2.1-2.2c-0.2-0.2-0.5-0.2-0.7-0.1l-3.8,2.6
	c-0.2,0.2-0.3,0.5-0.2,0.7l1.4,2.7c-0.4,0.6-0.7,1.3-1,2l-3,0.7c-0.3,0.1-0.5,0.3-0.4,0.6l0.4,4.6c0,0.3,0.3,0.5,0.5,0.5l3.1,0.1
	c0.4,0.7,0.8,1.3,1.3,1.8l-0.9,3c-0.1,0.3,0.1,0.6,0.3,0.7l4.1,1.9c0.3,0.1,0.6,0,0.7-0.2l1.7-2.6c0.4,0,0.7,0,1.1,0
	c0.4,0,0.7-0.1,1.1-0.2l2.1,2.2c0.2,0.2,0.5,0.2,0.7,0.1l3.8-2.6c0.2-0.2,0.3-0.5,0.2-0.7l-1.4-2.7c0.4-0.6,0.7-1.3,1-2l3-0.7
	c0.3-0.1,0.5-0.3,0.4-0.6l-0.4-4.6c0-0.3-0.3-0.5-0.5-0.5l-3.1-0.1c-0.4-0.7-0.8-1.3-1.3-1.8l0.9-3c0.1-0.3-0.1-0.6-0.3-0.7
	l-4.1-1.9c-0.3-0.1-0.6,0-0.7,0.2L414,246.1z M417.7,254.4c0.2,2.3-1.5,4.3-3.7,4.5c-2.2,0.2-4.2-1.4-4.4-3.7c0,0,0,0,0,0
	c-0.2-2.3,1.5-4.3,3.7-4.5C415.5,250.4,417.5,252.1,417.7,254.4C417.7,254.3,417.7,254.4,417.7,254.4L417.7,254.4z"/>
</svg>
